# xmcd
#
# Track frame offsets: 
#        150
#        15432
#        29192
#        43767
#        61205
#        76425
#        92260
#        108932
#        123922
#        140095
#        155062
#        171225
#        185855
#        201345
#
# Disc length: 2891 seconds
#
# Revision: 0
# Processed by: cddbd v1.5.1PL2 Copyright (c) Steve Scherf et al.
# Submitted via: ExactAudioCopy v0.95b4
#
DISCID=c40b490e
DTITLE=สุนารี  ราชสีมา - สุนารี ฮิตตลอดกาล
DYEAR=2001
DGENRE=Country
TTITLE0=กลับไปถามเมี'ูก่อน
TTITLE1=ชายใจเดียว
TTITLE2=มอเตอร์ไซด์นุ่งสั้น
TTITLE3=ทางสายใหม่
TTITLE4=จดหมายใส่น้ำหอม
TTITLE5=คนเลวขอร้อง
TTITLE6=ที่รักเรารักกันไม่ได้
TTITLE7=ฝนซาน้ำตาซึม
TTITLE8=รักฉันนั้นเพื่อเธอ
TTITLE9=คอยวันเธอใจเดียว
TTITLE10=หลอดไฟใส้ขาด
TTITLE11=ลารักจาเดือน
TTITLE12=กอดฉันแต่อย่ารักฉัน
TTITLE13=คำเตือนของแม่
EXTD=
EXTT0=
EXTT1=
EXTT2=
EXTT3=
EXTT4=
EXTT5=
EXTT6=
EXTT7=
EXTT8=
EXTT9=
EXTT10=
EXTT11=
EXTT12=
EXTT13=
PLAYORDER=
